<?xml version="1.0" encoding="UTF-8" standalone="no"?>
<svg width="20px" height="20px" viewBox="0 0 20 20" version="1.1" xmlns="http://www.w3.org/2000/svg" xmlns:xlink="http://www.w3.org/1999/xlink">
    <!-- Generator: Sketch 39.1 (31720) - http://www.bohemiancoding.com/sketch -->
    <title>email_icon</title>
    <desc>Created with Sketch.</desc>
    <defs></defs>
    <g id="design#3" stroke="none" stroke-width="1" fill="none" fill-rule="evenodd">
        <g id="desktop-#2" transform="translate(-675.000000, -989.000000)" fill="#D6D8D9">
            <g id="content" transform="translate(48.000000, 123.000000)">
                <g id="PROFILE" transform="translate(45.000000, 146.000000)">
                    <g id="profile_social" transform="translate(513.000000, 627.000000)">
                        <path d="M83.21,104.761 C83.21,105.601 83.449,105.936 84.074,105.936 C85.467,105.936 86.354,104.161 86.354,101.209 C86.354,96.697 83.066,94.537 78.961,94.537 C74.738,94.537 70.897,97.369 70.897,102.721 C70.897,107.833 74.257,110.617 79.417,110.617 C81.169,110.617 82.345,110.425 84.144,109.825 L84.53,111.432 C82.754,112.009 80.856,112.176 79.393,112.176 C72.625,112.176 69,108.456 69,102.72 C69,96.936 73.201,93 78.985,93 C85.009,93 88.2,96.6 88.2,101.016 C88.2,104.76 87.025,107.616 83.329,107.616 C81.648,107.616 80.545,106.944 80.401,105.455 C79.969,107.111 78.817,107.616 77.256,107.616 C75.168,107.616 73.416,106.007 73.416,102.768 C73.416,99.504 74.953,97.488 77.713,97.488 C79.177,97.488 80.089,98.064 80.495,98.976 L81.192,97.704 L83.208,97.704 L83.208,104.761 L83.21,104.761 L83.21,104.761 Z M80.259,101.593 C80.259,100.274 79.274,99.721 78.458,99.721 C77.57,99.721 76.587,100.44 76.587,102.553 C76.587,104.233 77.331,105.169 78.458,105.169 C79.25,105.169 80.259,104.665 80.259,103.273 L80.259,101.593 L80.259,101.593 Z" id="email_icon"></path>
                    </g>
                </g>
            </g>
        </g>
    </g>
</svg>