<?xml version="1.0" encoding="UTF-8" standalone="no"?>
<svg width="35px" height="35px" viewBox="0 0 35 35" version="1.1" xmlns="http://www.w3.org/2000/svg" xmlns:xlink="http://www.w3.org/1999/xlink">
    <!-- Generator: Sketch 39.1 (31720) - http://www.bohemiancoding.com/sketch -->
    <title>Instagram</title>
    <desc>Created with Sketch.</desc>
    <defs></defs>
    <g id="design#3" stroke="none" stroke-width="1" fill="none" fill-rule="evenodd">
        <g id="desktop-#2" transform="translate(-606.000000, -898.000000)" fill="#D6D8D9">
            <g id="content" transform="translate(48.000000, 123.000000)">
                <g id="PROFILE" transform="translate(45.000000, 146.000000)">
                    <g id="profile_social" transform="translate(513.000000, 627.000000)">
                        <g id="instagram">
                            <path d="M17.5000347,2 C12.7472854,2 12.1513335,2.02014524 10.2847724,2.105311 C8.42210142,2.19026836 7.14996398,2.48612558 6.03683503,2.91876207 C4.88605532,3.36591703 3.91012244,3.96430025 2.93717661,4.93717661 C1.96430025,5.91012244 1.36591703,6.88605532 0.91876207,8.03683503 C0.486125583,9.14996398 0.190268358,10.4221014 0.105311001,12.2847724 C0.0201452442,14.1513335 0,14.7472854 0,19.5000347 C0,24.2527146 0.0201452442,24.8486665 0.105311001,26.7152276 C0.190268358,28.5778986 0.486125583,29.850036 0.91876207,30.963165 C1.36591703,32.1139447 1.96430025,33.0898776 2.93717661,34.0628234 C3.91012244,35.0356998 4.88605532,35.634083 6.03683503,36.0813074 C7.14996398,36.5138744 8.42210142,36.8097316 10.2847724,36.894689 C12.1513335,36.9798548 12.7472854,37 17.5000347,37 C22.2527146,37 22.8486665,36.9798548 24.7152276,36.894689 C26.5778986,36.8097316 27.850036,36.5138744 28.963165,36.0813074 C30.1139447,35.634083 31.0898776,35.0356998 32.0628234,34.0628234 C33.0356998,33.0898776 33.634083,32.1139447 34.0813074,30.963165 C34.5138744,29.850036 34.8097316,28.5778986 34.894689,26.7152276 C34.9798548,24.8486665 35,24.2527146 35,19.5000347 C35,14.7472854 34.9798548,14.1513335 34.894689,12.2847724 C34.8097316,10.4221014 34.5138744,9.14996398 34.0813074,8.03683503 C33.634083,6.88605532 33.0356998,5.91012244 32.0628234,4.93717661 C31.0898776,3.96430025 30.1139447,3.36591703 28.963165,2.91876207 C27.850036,2.48612558 26.5778986,2.19026836 24.7152276,2.105311 C22.8486665,2.02014524 22.2527146,2 17.5000347,2 Z M17.5000347,5.15314752 C22.1726894,5.15314752 22.7261974,5.17100038 24.5715017,5.2551936 C26.2777344,5.33299593 27.2043462,5.61808586 27.8209991,5.8577448 C28.637854,6.17520607 29.2208157,6.55442292 29.8331617,7.16683835 C30.4455771,7.77918431 30.8247939,8.36214599 31.1422552,9.17900091 C31.3819141,9.79565379 31.6670041,10.7222656 31.7448064,12.4284983 C31.8289996,14.2738026 31.8468525,14.8273106 31.8468525,19.5000347 C31.8468525,24.1726894 31.8289996,24.7261974 31.7448064,26.5715017 C31.6670041,28.2777344 31.3819141,29.2043462 31.1422552,29.8209991 C30.8247939,30.637854 30.4455771,31.2208157 29.8331617,31.8331617 C29.2208157,32.4455771 28.637854,32.8247939 27.8209991,33.1422552 C27.2043462,33.3819141 26.2777344,33.6670041 24.5715017,33.7448064 C22.7264752,33.8289996 22.1730367,33.8468525 17.5000347,33.8468525 C12.8269633,33.8468525 12.2735942,33.8289996 10.4284983,33.7448064 C8.72226556,33.6670041 7.79565379,33.3819141 7.17900091,33.1422552 C6.36214599,32.8247939 5.77918431,32.4455771 5.16683835,31.8331617 C4.55449239,31.2208157 4.17520607,30.637854 3.8577448,29.8209991 C3.61808586,29.2043462 3.33299593,28.2777344 3.2551936,26.5715017 C3.17100038,24.7261974 3.15314752,24.1726894 3.15314752,19.5000347 C3.15314752,14.8273106 3.17100038,14.2738026 3.2551936,12.4284983 C3.33299593,10.7222656 3.61808586,9.79565379 3.8577448,9.17900091 C4.17520607,8.36214599 4.55442292,7.77918431 5.16683835,7.16683835 C5.77918431,6.55442292 6.36214599,6.17520607 7.17900091,5.8577448 C7.79565379,5.61808586 8.72226556,5.33299593 10.4284983,5.2551936 C12.2738026,5.17100038 12.8273106,5.15314752 17.5000347,5.15314752 Z M17.5000347,10.5135191 C12.5368718,10.5135191 8.51351915,14.5368718 8.51351915,19.5000347 C8.51351915,24.4631282 12.5368718,28.4864809 17.5000347,28.4864809 C22.4631282,28.4864809 26.4864809,24.4631282 26.4864809,19.5000347 C26.4864809,14.5368718 22.4631282,10.5135191 17.5000347,10.5135191 Z M17.5000347,25.3333333 C14.2783239,25.3333333 11.6666667,22.7216761 11.6666667,19.5000347 C11.6666667,16.2783239 14.2783239,13.6666667 17.5000347,13.6666667 C20.7216761,13.6666667 23.3333333,16.2783239 23.3333333,19.5000347 C23.3333333,22.7216761 20.7216761,25.3333333 17.5000347,25.3333333 Z M28.9415609,10.1584766 C28.9415609,11.3182869 28.0013338,12.2584446 26.8415234,12.2584446 C25.6817825,12.2584446 24.7415554,11.3182869 24.7415554,10.1584766 C24.7415554,8.99866625 25.6817825,8.05843907 26.8415234,8.05843907 C28.0013338,8.05843907 28.9415609,8.99866625 28.9415609,10.1584766 Z" id="Instagram"></path>
                        </g>
                    </g>
                </g>
            </g>
        </g>
    </g>
</svg>