<?xml version="1.0" encoding="UTF-8" standalone="no"?>
<svg width="20px" height="20px" viewBox="0 0 20 20" version="1.1" xmlns="http://www.w3.org/2000/svg" xmlns:xlink="http://www.w3.org/1999/xlink">
    <!-- Generator: Sketch 39.1 (31720) - http://www.bohemiancoding.com/sketch -->
    <title>Skype</title>
    <desc>Created with Sketch.</desc>
    <defs></defs>
    <g id="design#3" stroke="none" stroke-width="1" fill="none" fill-rule="evenodd">
        <g id="desktop-#2" transform="translate(-675.000000, -1069.000000)" fill="#D6D8D9">
            <g id="content" transform="translate(48.000000, 123.000000)">
                <g id="PROFILE" transform="translate(45.000000, 146.000000)">
                    <g id="profile_social" transform="translate(513.000000, 627.000000)">
                        <path d="M88.4249765,185.123109 C88.5696143,184.471628 88.644873,183.796963 88.644873,183.10375 C88.644873,177.91045 84.3751176,173.699009 79.1058325,173.699009 C78.5507996,173.699009 78.00635,173.746537 77.4748354,173.836956 C76.6222954,173.307193 75.6133584,173 74.5326905,173 C71.4764817,173 69,175.441315 69,178.455283 C69,179.461485 69.2775165,180.402771 69.7596425,181.214224 C69.6338194,181.823973 69.5667921,182.456906 69.5667921,183.10375 C69.5667921,188.299368 73.8377234,192.50965 79.1058325,192.50965 C79.7031985,192.50965 80.2864534,192.455167 80.8532455,192.351997 C81.6328786,192.764679 82.5218721,193 83.4684854,193 C86.5235183,193 89,190.557526 89,187.545876 C89,186.675303 88.7930386,185.853417 88.4249765,185.123109 Z M83.9988241,187.5992 C83.5578551,188.215904 82.906397,188.702776 82.0597366,189.048223 C81.2236595,189.391352 80.221778,189.566394 79.0799624,189.566394 C77.7100188,189.566394 76.5611477,189.328754 75.6639229,188.859271 C75.023048,188.518461 74.4950611,188.057092 74.0940734,187.484437 C73.6883819,186.909465 73.4837723,186.33797 73.4837723,185.785023 C73.4837723,185.441894 73.6178269,185.142816 73.8812324,184.898221 C74.142286,184.654785 74.4774224,184.533067 74.8772342,184.533067 C75.2041392,184.533067 75.4875353,184.629282 75.7168391,184.820553 C75.9367357,185.004869 76.1248824,185.277285 76.2765757,185.62621 C76.4459078,186.008752 76.6293509,186.331015 76.8233772,186.582565 C77.011524,186.82832 77.280809,187.033501 77.6241769,187.194633 C77.9698965,187.354605 78.4367357,187.438069 79.0094073,187.438069 C79.7984478,187.438069 80.4452023,187.271141 80.9308561,186.944242 C81.4071025,186.625456 81.6375823,186.240596 81.6375823,185.769953 C81.6375823,185.400162 81.5164628,185.108039 81.2695202,184.878514 C81.0084666,184.639715 80.6662747,184.45424 80.2511759,184.324407 C79.8172625,184.192256 79.2293039,184.047354 78.5014111,183.896656 C77.5101129,183.687996 76.6693321,183.441083 76.0014111,183.159393 C75.3170273,182.873066 74.7655221,182.475454 74.3621825,181.978149 C73.9529633,181.47157 73.744826,180.837478 73.744826,180.0921 C73.744826,179.382658 73.9623706,178.74161 74.3927563,178.189822 C74.8184384,177.641512 75.4416745,177.212601 76.244826,176.921637 C77.0362183,176.632991 77.976952,176.48693 79.0435089,176.48693 C79.894873,176.48693 80.6439323,176.584304 81.2695202,176.776734 C81.8986359,176.969165 82.4277987,177.22883 82.8440734,177.549933 C83.2638758,177.874515 83.5766698,178.218803 83.7718721,178.57816 C83.9694262,178.940996 84.070555,179.301513 84.070555,179.650438 C84.070555,179.986611 83.9388523,180.292645 83.6789746,180.558106 C83.417921,180.827045 83.0874882,180.962673 82.6994356,180.962673 C82.3466604,180.962673 82.0691439,180.876891 81.8786453,180.709963 C81.6999059,180.553469 81.514111,180.310033 81.3083255,179.962267 C81.0707902,179.517127 80.7826905,179.165884 80.4522578,178.917811 C80.1312324,178.676694 79.59619,178.556135 78.8588899,178.556135 C78.1768579,178.556135 77.6194732,178.690605 77.2067262,178.958384 C76.8092662,179.214571 76.6152399,179.510172 76.6152399,179.860256 C76.6152399,180.073552 76.6775635,180.253231 76.8069144,180.406248 C76.940969,180.570857 77.1326435,180.712282 77.3748824,180.832841 C77.6253528,180.956877 77.8840546,181.05657 78.1427563,181.126123 C78.4073377,181.199154 78.8518344,181.306961 79.4621355,181.446067 C80.2347131,181.608358 80.9437912,181.792674 81.570555,181.9909 C82.2067262,182.190286 82.7547037,182.43604 83.203904,182.724686 C83.6601599,183.017968 84.0211665,183.393555 84.2786924,183.843332 C84.5362183,184.296586 84.6667451,184.853011 84.6667451,185.501014 C84.6667451,186.275372 84.440969,186.981337 83.9988241,187.5992 Z" id="Skype"></path>
                    </g>
                </g>
            </g>
        </g>
    </g>
</svg>