<?xml version="1.0" encoding="UTF-8" standalone="no"?>
<svg width="43px" height="35px" viewBox="0 0 43 35" version="1.1" xmlns="http://www.w3.org/2000/svg" xmlns:xlink="http://www.w3.org/1999/xlink">
    <!-- Generator: Sketch 39.1 (31720) - http://www.bohemiancoding.com/sketch -->
    <title>twitter_icon</title>
    <desc>Created with Sketch.</desc>
    <defs></defs>
    <g id="design#3" stroke="none" stroke-width="1" fill="none" fill-rule="evenodd">
        <g id="desktop-#2" transform="translate(-790.000000, -896.000000)" fill="#D6D8D9">
            <g id="content" transform="translate(48.000000, 123.000000)">
                <g id="PROFILE" transform="translate(45.000000, 146.000000)">
                    <g id="profile_social" transform="translate(513.000000, 627.000000)">
                        <g id="twitter" transform="translate(184.000000, 0.000000)">
                            <path d="M38.6662212,8.71254682 C38.6849503,9.0917603 38.6919737,9.47565543 38.6919737,9.85486891 C38.6919737,21.5355805 29.802676,35 13.5481607,35 C8.55451516,35 3.91204018,33.536985 -2.84217094e-14,31.0276217 C0.692976597,31.1095506 1.39531774,31.1516854 2.10702344,31.1516854 C6.2508362,31.1516854 10.0598663,29.7378277 13.0822744,27.3712547 C9.21705697,27.2986891 5.95117064,24.747191 4.82742481,21.2359551 C5.36588636,21.3366105 5.92073586,21.3904494 6.48963219,21.3904494 C7.29732451,21.3904494 8.07926432,21.2851124 8.81906366,21.0838015 C4.77591979,20.2691948 1.73010036,16.6994382 1.73010036,12.4157303 L1.73010036,12.3057116 C2.92173917,12.9681648 4.28662213,13.3661049 5.73344489,13.4129213 C3.36187295,11.8258427 1.80033447,9.12453184 1.80033447,6.05571161 C1.80033447,4.43820225 2.23578598,2.91900749 2.99899669,1.61282772 C7.35585294,6.96161049 13.8712376,10.4775281 21.2153849,10.8473783 C21.0655521,10.19897 20.9882946,9.52715356 20.9882946,8.83192884 C20.9882946,3.95365169 24.9424752,0 29.8237462,0 C32.3662211,0 34.6628767,1.06975655 36.2759202,2.78792135 C38.286957,2.38998127 40.1785958,1.65496255 41.887626,0.643726592 C41.2274253,2.70599251 39.8250841,4.43820225 38.0013383,5.53136704 C39.7899671,5.31601124 41.4896326,4.84550562 43.0769236,4.1409176 C41.8923082,5.91526217 40.3939804,7.46956929 38.6662212,8.71254682 L38.6662212,8.71254682 Z" id="twitter_icon"></path>
                        </g>
                    </g>
                </g>
            </g>
        </g>
    </g>
</svg>